# xmcd CD database file
#
# Track frame offsets:
#	225
#	22023
#	35756
#	49798
#	66606
#	82273
#	98711
#	113540
#	126310
#	143143
#	162941
#	182342
#
# Disc length: 2614 seconds
#
# Revision: 1
# Processed by: cddbd v1.5.2PL0 Copyright (c) Steve Scherf et al.
# Submitted via: CDex 1.79
#
DISCID=a90a330c
DTITLE=Carmen Souza - creology
DYEAR=2017
DGENRE=Jazz
TTITLE0=Ligra
TTITLE1=Senhorinha
TTITLE2=Upa Neguinho
TTITLE3=Pretty Eyes
TTITLE4=Mon di Deus
TTITLE5=Xinxiroti
TTITLE6=Tud tem 1 razao
TTITLE7=London Light
TTITLE8=Kem Ka tem Cabeca
TTITLE9=Homem Musica
TTITLE10=Escuta Mocambique
TTITLE11=Creology
EXTD=YEAR: 2017
EXTT0=
EXTT1=
EXTT2=
EXTT3=
EXTT4=
EXTT5=
EXTT6=
EXTT7=
EXTT8=
EXTT9=
EXTT10=
EXTT11=
PLAYORDER=
